<?xml version="1.0" encoding="utf-8"?>
<!-- Generator: Adobe Illustrator 16.2.1, SVG Export Plug-In . SVG Version: 6.00 Build 0)  -->
<!DOCTYPE svg PUBLIC "-//W3C//DTD SVG 1.1//EN" "http://www.w3.org/Graphics/SVG/1.1/DTD/svg11.dtd" [
	<!ENTITY ns_extend "http://ns.adobe.com/Extensibility/1.0/">
	<!ENTITY ns_ai "http://ns.adobe.com/AdobeIllustrator/10.0/">
	<!ENTITY ns_graphs "http://ns.adobe.com/Graphs/1.0/">
	<!ENTITY ns_vars "http://ns.adobe.com/Variables/1.0/">
	<!ENTITY ns_imrep "http://ns.adobe.com/ImageReplacement/1.0/">
	<!ENTITY ns_sfw "http://ns.adobe.com/SaveForWeb/1.0/">
	<!ENTITY ns_custom "http://ns.adobe.com/GenericCustomNamespace/1.0/">
	<!ENTITY ns_adobe_xpath "http://ns.adobe.com/XPath/1.0/">
]>
<svg version="1.1" id="Layer_1" xmlns:x="&ns_extend;" xmlns:i="&ns_ai;" xmlns:graph="&ns_graphs;"
	 xmlns="http://www.w3.org/2000/svg" xmlns:xlink="http://www.w3.org/1999/xlink" x="0px" y="0px" width="350px" height="350px"
	 viewBox="0 0 350 350" enable-background="new 0 0 350 350" xml:space="preserve">
<metadata>
	<sfw  xmlns="&ns_sfw;">
		<slices></slices>
		<sliceSourceBounds  width="296.687" height="330.384" bottomLeftOrigin="true" y="-338.497" x="29.405"></sliceSourceBounds>
	</sfw>
</metadata>
<radialGradient id="SVGID_1_" cx="121.0542" cy="155.6865" r="188.8348" gradientUnits="userSpaceOnUse">
	<stop  offset="0" style="stop-color:#E9832B"/>
	<stop  offset="0.1729" style="stop-color:#E57E2B"/>
	<stop  offset="0.3753" style="stop-color:#D8702B"/>
	<stop  offset="0.5924" style="stop-color:#C4582C"/>
	<stop  offset="0.8183" style="stop-color:#A8382C"/>
	<stop  offset="1" style="stop-color:#8C182D"/>
</radialGradient>
<path fill="url(#SVGID_1_)" d="M318.059,156.012c-2.451,0-5.033,1.105-7.677,3.285c-4.973,4.1-7.078,4.713-7.891,4.713
	c-0.348,0-0.443-0.115-0.476-0.153c-0.17-0.206-0.199-0.656-0.168-0.979c0.023-0.072,0.046-0.146,0.068-0.218
	c0.407-0.989,1.594-4.554,1.979-12.994c0.025-0.086,0.043-0.176,0.041-0.271c-0.001-0.019-0.002-0.064-0.004-0.133
	c2.693-1.463,15.385-8.908,17.873-20.524c1.342-6.262-0.551-12.618-5.645-18.917c-2.11-2.418-2.322-2.642-2.889-2.642
	c-0.297,0-0.605,0.163-0.77,0.411c-0.325,0.487-0.17,0.859,0.405,2.242c1.264,3.036,4.62,11.1,1.319,17.605
	c-2.012,3.963-6.2,6.809-12.458,8.466c-0.781-2.376-3.419-9.528-9.252-17.907c-1.933-2.778-2.613-3.266-3.329-3.266
	c-0.33,0-0.632,0.138-0.852,0.388c-0.579,0.661-0.453,1.864-0.005,5.249c0.188,1.418,0.412,3.115,0.568,4.94
	c0.094,2.867,0.047,6.25-0.329,9.801c-0.231,1.097-0.549,2.15-0.98,3.126c-1.36-0.333-4.633-1.41-6.73-4.406
	c-1.923-2.747-2.406-6.444-1.437-10.991c0.152-0.713,0.335-1.534,0.538-2.449c2.853-12.857,9.533-42.967-2.859-58.41
	c-4.968-6.19-12.5-9.33-22.388-9.33c-1.837,0-3.779,0.109-5.794,0.326c2.014-2.471,6.464-7.173,12.989-9.892
	c3.495-1.456,4.937-2.691,4.674-4.004c-0.209-1.048-1.409-1.58-3.567-1.58c-2.66,0-6.349,0.807-9.84,2.146
	c-3.991,1.396-7.661,4.241-11.91,7.536c-8.48,6.574-18.914,14.665-37.796,15.793c5.415-3.414,16.271-11.588,20.105-24.171
	c2.716-8.911,1.339-18.327-4.104-28.001c-1.223-2.082-1.686-2.687-2.398-2.687c-0.282,0-0.553,0.123-0.742,0.335
	c-0.451,0.506-0.363,1.249-0.073,3.708c1.047,8.901,3.829,32.544-20.977,41.915c-0.038,0.015-0.092,0.041-0.127,0.06
	c-0.006,0.003-0.615,0.328-1.904,0.328c-1.366,0-3.711-0.369-7.124-2.124c-5.567-2.863-10.141-8.851-17.064-17.914
	c-1.417-1.854-2.929-3.834-4.566-5.939c-4.743-6.098-11.454-9.322-19.406-9.322c-5.68,0-12.088,1.68-18.044,4.731
	c-16.872,8.642-22.527,25.18-24.259,37.885c-1.56-0.232-4.986-0.646-9.637-0.646c-13.467,0-38.536,3.59-55.118,27.636
	c-13.395,19.422-8.258,35.915-4.003,44.018c5.101,9.715,13.742,16.83,19.58,18.362c-1.753,1.072-4.23,2.728-6.837,4.922
	c-4.475,3.767-10.149,9.881-11.765,17.621c-1.546,7.405,0.817,14.947,7.024,22.417c0.292,0.351,0.617,0.693,1.106,0.693
	c0.273,0,0.578-0.148,0.747-0.364c0.374-0.478,0.252-0.967-0.2-2.788c-0.813-3.277-2.505-10.096-0.524-15.79
	c1.378-3.964,3.984-8.689,8.568-8.689c1.948,0,4.103,0.845,6.415,2.513c-1.112,2.014-4.148,8.076-4.843,15.321
	c-0.485,1.029-2.947,6.553-3.668,13.95c-0.041,0.314-0.083,0.751-0.105,1.288c-0.359,5.346,0.246,11.542,3.111,17.687
	c5.272,11.302,16.82,19.41,34.34,24.119c-2.056,1.221-5.45,3.389-8.741,6.168c-7.028,5.937-9.967,11.535-8.735,16.64
	c1.688,6.992,8.089,9.328,14.278,11.586c4.574,1.67,9.303,3.396,12.381,6.959c5.069,5.87,5.946,13.1,4.197,16.922
	c-1.578,3.447-5.379,5.27-10.992,5.271c-2.077,0-4.426-0.247-6.983-0.734c-26.506-5.049-27.768-19.012-27.523-23.171
	c0.165-2.793-0.267-4.952-1.184-5.925c-0.467-0.493-0.963-0.597-1.299-0.597c-1.856,0-3.407,3.048-4.609,9.06
	c-0.004,0.021-0.008,0.043-0.011,0.064c-2.563,20.513,17.976,30.426,19.043,30.925c0.693,0.387,9.222,4.994,22.127,4.994
	c6.347,0,12.698-1.134,18.875-3.371c11.666-4.223,19.284-11.276,21.454-19.86c1.74-6.887-0.167-14.224-5.377-20.866
	c5.05,0.956,17.183,4.801,20.96,19.869c-1.248,1.315-5.214,5.904-5.265,11.157c-0.028,2.807,1.064,5.336,3.247,7.519
	c0.021,0.021,0.044,0.042,0.068,0.062c1.544,1.255,3.14,1.892,4.743,1.892c6.682,0,11.19-11.065,12.269-14.005
	c1.55,0.241,5.438,1.119,7.595,4.024c1.507,2.033,1.897,4.722,1.159,7.993c-0.431,1.907-0.4,3.037,0.099,3.662
	c0.25,0.312,0.605,0.484,1,0.484c1.386,0,3.072-2.472,4.129-5.616c0.005-0.015,0.015-0.025,0.019-0.041
	c0.005-0.019,0.008-0.037,0.013-0.056c0.411-1.242,0.726-2.583,0.88-3.92c0.425-3.678-0.303-7.064-2.106-9.794
	c-2.176-3.295-5.857-5.63-10.946-6.945c0.002-0.9-0.038-2.6-0.283-4.981c3.714,0.773,15.722,4.301,20.757,18.128
	c1.888,5.184,1.579,9.79-0.892,13.319c-2.74,3.915-7.87,6.07-14.445,6.07c-7.037,0-15.159-2.468-23.49-7.137
	c-0.361-0.202-0.814-0.128-1.093,0.178c-0.278,0.307-0.308,0.765-0.072,1.104c0.421,0.606,10.547,14.877,31.74,17.265
	c0.939,0.105,1.894,0.159,2.836,0.159c10.343,0,19.959-6.437,23.927-16.018c4.01-9.68,1.432-20.109-7.073-28.614
	c-0.15-0.15-3.766-3.715-11.345-6.906c-2.966-1.248-4.9-3.606-5.449-6.642c-0.804-4.447,1.506-9.691,6.353-14.475
	c4.861,3.884,14.932,14.458,22.041,30.009c4.239,9.273,11.892,14.592,20.996,14.592c8.297,0,15.929-4.47,18.559-10.87
	c0.788-1.92,0.922-2.87,0.496-3.506c-0.231-0.345-0.615-0.542-1.055-0.542c-0.741,0-1.583,0.524-3.005,1.45
	c-0.773,0.503-1.573,1.023-2.279,1.356c-0.103,0.048-0.258,0.132-0.462,0.242c-1.263,0.687-4.617,2.51-8.814,2.511
	c-8.082,0.001-14.941-6.895-19.818-19.896c-5.999-18.826-10.7-28.744-15.526-32.649c0.883-0.818,2.952-2.366,7.253-4.068
	c0.395,1.614,0.861,3.277,1.389,5.089c0.112,0.387,0.467,0.641,0.854,0.641c0.066,0,0.134-0.008,0.201-0.023
	c0.459-0.107,0.756-0.555,0.675-1.019c-0.01-0.057-0.374-2.228-0.469-5.653c1.665-0.56,3.579-1.125,5.783-1.676
	c2.896-0.724,5.954-1.091,9.088-1.091c10.47,0,21.869,4.407,23.4,12.831c0.646,3.546-0.172,6.808-2.361,9.432
	c-2.617,3.136-6.848,4.935-11.606,4.935c-1.998,0-4.025-0.321-6.023-0.953c-1.643-0.521-2.547-0.632-3.127-0.338
	c-0.378,0.192-0.604,0.554-0.604,0.967c0,2.153,9.113,6.194,17.201,6.194c6.129,0,14.495-2.086,19.996-11.877
	c1.644,0.856,5.526,2.631,9.485,2.631c3.934,0,6.95-1.801,8.726-5.208c5.212-10.008-3.692-17.421-3.783-17.494
	c-0.307-0.25-0.74-0.267-1.066-0.042c-0.325,0.225-0.463,0.638-0.338,1.013c0.397,1.191,1.205,4.661,0.181,6.376
	c-0.32,0.538-0.786,0.843-1.464,0.961c-0.422,0.072-0.924,0.111-1.453,0.111c-1.384,0-6.181-0.317-9.77-4.405
	c-3.428-3.903-4.713-9.95-3.826-17.982c1.461,0.384,4.304,0.999,7.532,0.999c5.644,0,15.083-2.054,15.646-15.638
	c0.316-0.049,0.738-0.094,1.223-0.094c3.02,0,6.771,1.618,7.493,9.326c0.118,1.254,0.198,2.729,0.282,4.291
	c0.74,13.622,2.1,38.573,35.267,40.27c0.041,0.009,0.079,0.019,0.119,0.027c0.061,0.012,0.12,0.018,0.179,0.018
	c0.045,0,0.085-0.016,0.127-0.021c1.047,0.047,2.121,0.071,3.23,0.071h0.006c0.502,0.027,0.895-0.396,0.895-0.889
	c0-0.423-0.295-0.776-0.689-0.866c-1.383-0.465-25.197-8.759-25.197-27.379c0-9.058,3.193-15.034,6.011-20.308
	c3.138-5.873,5.864-10.977,2.635-18.086c1.338-0.485,3.846-1.506,6.308-3.105c4.829-3.14,7.101-6.996,6.569-11.153
	c-0.814-6.387-6.84-10.513-15.35-10.513c-2.839,0-5.757,0.479-8.562,1.396c0.01-0.017,0.02-0.035,0.028-0.051
	c0.131-0.232,0.26-0.467,0.388-0.705c0.138-0.255,0.277-0.518,0.416-0.788c0.006-0.01,0.011-0.02,0.016-0.029
	c0.166-0.322,0.332-0.649,0.493-0.983c1.878-0.15,8.029-0.972,12.257-5.376c3.269-3.404,8.039-6.839,11.331-6.839
	c1.021,0,1.786,0.342,2.342,1.046c0.535,0.678,0.941,0.954,1.402,0.954c0.489,0,1.01-0.381,1.01-1.087
	C326.093,160.842,323.155,156.012,318.059,156.012z M272.63,258.53c-1.47,2.821-3.874,4.251-7.148,4.251
	c-3.612,0-7.289-1.715-8.735-2.472c0.322-0.969,0.79-2.78,0.818-5.214c1.967,0.979,5.686,2.58,8.988,2.58
	c1.493,0,2.899-0.328,4.017-1.19c2.036-1.572,2.72-4.592,2.058-8.989C274.062,250.229,274.944,254.086,272.63,258.53z
	 M266.283,252.054c0.639,0,1.229-0.046,1.757-0.138c1.176-0.204,2.104-0.827,2.687-1.801c0.135-0.226,0.241-0.468,0.336-0.717
	c0.2,2.78-0.326,4.711-1.579,5.68c-2.86,2.209-9.278-0.53-11.999-2.024c-0.125-1.409-0.407-2.967-0.924-4.642
	C260.407,251.759,264.883,252.054,266.283,252.054z M315.812,128.241c2.828-5.575,1.349-11.969-0.097-16.093
	c4.026,5.44,5.49,10.888,4.352,16.211c-2.119,9.912-12.683,16.833-16.243,18.915c-0.165-2.275-0.568-6.044-1.534-9.675
	C309.02,135.803,313.569,132.66,315.812,128.241z M290.361,135.196c0.371-1.883,0.511-3.857,0.508-5.798
	c1.956,13.675-0.254,24.608-6.637,32.584c-10.654,13.315-30.109,14.569-36.228,14.621c2.615-3.583,1.741-7.458,0.749-11.861
	c-0.097-0.431-0.195-0.868-0.293-1.313c1.134,1.031,2.248,1.247,2.496,1.284c13.112,2.357,23.204,0.127,29.995-6.633
	C286.099,152.957,289.318,145.083,290.361,135.196z M270.333,162.389c-3.06-1.905-4.862-4.324-5.357-7.188
	c-0.777-4.493,1.816-9.018,3.023-10.828c2.521,3.688,7.512,5.996,15.665,7.249c-1.095,1.885-2.402,3.641-3.966,5.198
	c-2.585,2.573-5.71,4.43-9.34,5.59C270.35,162.403,270.343,162.395,270.333,162.389z M254.714,54.425
	c9.322,0,16.388,2.915,21.001,8.664c11.859,14.778,5.308,44.304,2.51,56.912c-0.203,0.921-0.387,1.747-0.54,2.465
	c-1.076,5.048-0.499,9.213,1.719,12.38c2.881,4.115,7.523,5.097,8.415,5.251c-0.675,3.39-1.715,6.785-3.276,9.902
	c-0.076-0.035-0.156-0.063-0.243-0.076c-7.927-1.172-12.66-3.282-14.896-6.641c-2.972-4.463-1.327-10.927,0.754-19.111
	c1.769-6.952,3.871-15.258,3.438-24.391c0.009-0.048,0.018-0.097,0.019-0.147c0.021-0.989,0.435-24.294-9.638-31.927
	c-3.287-2.491-7.309-3.034-11.925-1.623c-9.763,2.649-16.737,10.548-23.482,18.187c-6.339,7.177-12.342,13.954-20.055,15.694
	c-4.573-1.948-9.154-2.97-13.687-3.051c-0.022-3.004-0.108-6.106-0.319-9.282c-0.086-1.274-0.218-2.572-0.404-3.875
	c8.091-0.717,16.135-3.444,28.229-13.454c16.533-13.682,24.521-15.268,24.754-15.311C249.768,54.616,252.334,54.425,254.714,54.425z
	 M235.518,175.536c-3.335-6.991-7.18-17.884-8.123-32.204c-0.723-10.957-6.319-17.576-10.888-21.2
	c-6.261-4.967-14.578-7.405-21.941-6.499c0.01-2.387,0.067-4.89,0.128-7.505c0.068-2.971,0.14-6.137,0.143-9.438
	c4.011,0.076,8.082,0.938,12.161,2.571c0.109,0.383,0.45,0.651,0.844,0.651c0.051,0,0.103-0.005,0.154-0.014
	c0.115-0.02,0.227-0.052,0.342-0.075c1.685,0.745,3.371,1.618,5.053,2.624c20.71,12.392,20.236,25.197,19.636,41.408
	C232.695,154.738,232.332,164.534,235.518,175.536z M200.398,159.252c2.851,2.424,6.4,5.44,9.326,10.926
	c6.166,11.563,2.761,21.007-1.55,32.962c-1.219,3.378-2.487,6.897-3.595,10.646c0.54-2.677,1.172-5.612,1.907-8.869
	c6.198-27.452-9.495-37.922-19.88-44.851l-0.788-0.526c-3.608-2.414-5.645-5.26-6.052-8.458c-0.682-5.344,3.413-10.016,3.454-10.062
	c0.084-0.093,0.143-0.2,0.18-0.311c2.482-1.488,5.284-2.957,8.42-4.413c0.008-0.003,0.015-0.009,0.021-0.013
	c2.142,3.351,4.231,5.532,6.13,6.932c-0.731,1.156-1.379,2.384-1.916,3.688C193.417,153.317,196.497,155.937,200.398,159.252z
	 M143.883,273.477c-6.958-6.797-16.092-10.588-20.371-12.098c0.034-0.011,0.062-0.021,0.096-0.032
	c2.311,0.194,7.531,0.266,13.497-2.037c1.163,0.523,5.214,2.424,7.342,4.37C143.949,266.454,143.667,269.741,143.883,273.477z
	 M139.376,258.414c3.633-1.424,6.018-2.27,7.476-2.754c-0.606,1.356-1.382,3.402-2,6.039
	C143.162,260.381,140.941,259.186,139.376,258.414z M136.799,257.522c-7.55,3.021-14.077,1.936-14.167,1.921
	c-10.475-1.52-10.426-11.133-10.396-16.876c0.007-1.25,0.011-2.237-0.104-2.934c-0.329-1.97-1.839-3.477-3.321-4.517
	c2.568-0.979,4.048-2.085,5.372-3.075c1.312-0.98,2.444-1.827,4.456-2.477c3.37-1.087,4.555-1.879,4.526-3.028
	c-0.037-1.521-2.214-2.107-6.551-3.274c-1.417-0.383-3.024-0.814-4.652-1.317c-4.088-1.264-6.069-2.271-7.134-2.813
	c-1.099-0.559-1.825-0.928-2.846-0.16c-0.495,0.372-1.353,0.673-2.103,0.883c0.463-4.557-1.272-9.207-1.353-9.421
	c-0.08-0.21-0.236-0.382-0.438-0.48c-13.041-6.437-11.885-9.042-9.353-14.75c0.268-0.602,0.546-1.23,0.822-1.893
	c2.942-7.062,6.702-18.517,6.74-18.632c0.05-0.152,0.058-0.314,0.023-0.469c-3.097-13.934-3.253-22.418-3.19-25.291
	c0.125,0.03,0.249,0.06,0.366,0.084c2.12,0.435,5.552,1.139,9.661,1.139c9.437,0,22.434-3.72,31.226-22.973
	c3.219-7.047,3.604-12.971,2.687-17.741c0.602,1.817,1.303,3.674,2.105,5.571c3.014,7.122,4.087,12.761,4.198,13.369
	c-3.891,3.893-6.213,9.221-8.961,15.53l-0.27,0.619c-4.745,10.885-11.736,11.879-12.027,11.916
	c-0.464,0.054-0.807,0.457-0.786,0.924c0.022,0.466,0.401,0.836,0.868,0.848c0.02,0,0.052,0,0.099,0
	c1.163,0,10.803-0.334,19.903-10.712c-1.157,4.914-1.626,12.629,3.23,20.529c-0.012,0.021-0.025,0.04-0.034,0.062
	c-4.832,11.597-0.155,22.269,0.886,24.391c-0.753,1.094-1.503,2.25-2.235,3.467c-1.936,3.223-3.853,7.089-5.283,11.463
	c-5.657-9.339-5.878-21.629-5.88-21.756c-0.005-0.434-0.323-0.8-0.751-0.867c-0.426-0.069-0.842,0.184-0.98,0.596
	c-0.073,0.219-7.139,21.956,5.323,38.707c0.208,3.846,0.944,7.874,2.384,12.036c1.821,5.266,4.673,11.603,8.999,17.357
	C146.714,253.812,143.55,254.822,136.799,257.522z M96.587,239.453c-3.246,1.313-5.816,2.578-7.188,3.287
	c-2.118-13.002,5.762-22.764,8.72-25.903c0.106,1.269,0.095,2.613-0.157,3.893c-1.042,2.206-0.048,3.976,1.208,5.232
	C97.728,227.653,94.44,232.487,96.587,239.453z M100.53,227.105c0.189,0.137,0.367,0.259,0.532,0.369
	c-0.033,0.138-0.039,0.285,0,0.433c0.038,0.146,0.119,0.265,0.214,0.368c0.127,1.454,0.777,3.956,3.425,6.604
	c0.091,0.091,0.2,0.16,0.32,0.204c0.467,0.174,1.207,0.513,1.989,0.98c-3.118,0.742-6.115,1.729-8.765,2.739
	C96.421,232.688,99.334,228.497,100.53,227.105z M99.448,221.795c0.851-0.186,2.576-0.633,3.599-1.4
	c0.062-0.046,0.099-0.069,0.106-0.078c0.142,0.031,0.511,0.219,0.868,0.4c1.112,0.565,3.181,1.618,7.415,2.927
	c1.659,0.512,3.282,0.949,4.715,1.335c0.313,0.085,0.639,0.173,0.966,0.262c-6.43-0.197-11.972,0.813-14.284,1.315
	c-0.051-0.058-0.107-0.112-0.173-0.156l-0.252-0.165C100.5,224.99,98.844,223.593,99.448,221.795z M106.869,233.966
	c-0.456-0.228-0.828-0.389-1.041-0.475c-2.067-2.121-2.63-4.036-2.767-5.161c2.432-0.528,9.401-1.815,16.917-1.135
	c-0.467,0.191-1.074,0.416-1.886,0.679c-2.294,0.74-3.657,1.759-4.976,2.745c-1.464,1.095-2.979,2.228-5.986,3.205
	C107.033,233.856,106.947,233.906,106.869,233.966z M92.005,159.809c-13.825,4.937-23.026,21.86-24.266,25.991
	c-1.059,3.528-0.666,6.171,0.661,8.387c0.039,0.086,0.074,0.17,0.114,0.257c0.058,0.125,0.146,0.223,0.246,0.305
	c1.817,2.63,4.973,4.678,8.526,6.981l1.188,0.772c0.12,0.078,0.225,0.151,0.322,0.222c-8.675-2.219-13.905-5.9-15.532-10.959
	c-3.305-10.28,8.619-23.971,13.108-29.124c6.579-7.554,9.579-14.057,10.507-16.329c1.643,0.9,3.173,1.593,4.486,2.067
	C91.302,149.872,91.268,153.667,92.005,159.809z M84.116,166.362c-0.604,2.065-2.415,5.884-7.837,10.944
	c-2.112,1.972-3.8,3.646-5.12,5.13C73.513,177.966,78.016,171.25,84.116,166.362z M79.446,201.014l-1.192-0.775
	c-3.8-2.464-6.848-4.444-8.337-7.015c-1.85-4.279-0.95-6.659,7.576-14.617c7.911-7.383,8.653-12.439,8.698-13.786
	c1.888-1.298,3.907-2.396,6.045-3.198c0.48,3.557,1.207,7.798,2.297,12.733c-0.548,1.656-3.931,11.827-6.616,18.271
	c-0.27,0.65-0.544,1.267-0.806,1.856c-2.292,5.169-3.292,8.573,3.433,13.218c0.016,0.022,0.03,0.046,0.048,0.066
	c0.736,0.829,0.651,4.98-1.691,9.004c-1.824,3.132-6.226,8.097-15.234,6.172c-0.843-0.165-1.654-0.351-2.452-0.545
	c-0.024-0.019-0.046-0.04-0.073-0.057c-10.292-6.549-10.354-16.287-10.029-19.649c3.686,2.241,9.669,3.38,14.137,3.38
	c1.922,0,3.563-0.211,4.62-0.635c1.194-0.48,1.505-1.188,1.555-1.697C81.514,202.833,80.867,201.941,79.446,201.014z
	 M175.99,116.529c-0.272-0.409-0.823-0.52-1.232-0.247c-0.049,0.033-4.787,3.122-16.325,5.412
	c2.709-4.063,10.419-14.418,21.673-19.725c1.397,7.043,2.92,12.967,4.507,17.939c-0.942,0.891-2.668,2.729-3.312,3.763
	c-0.26,0.417-0.132,0.965,0.285,1.224c0.146,0.091,0.308,0.134,0.469,0.134c0.296,0,0.587-0.148,0.755-0.419
	c0.404-0.649,1.523-1.904,2.423-2.82c1.852,5.465,3.777,9.699,5.681,12.968c-14.14,6.588-21.828,13.592-23.497,21.408
	c-2.178,10.202,6.106,19.732,14.118,28.95c0.507,0.583,1.001,1.152,1.489,1.718c0.034,0.086,0.08,0.168,0.143,0.242
	c0.063,0.073,6.269,7.469,3.264,14.952c-2.128,5.295-5.285,9.245-9.547,11.927c0.264-0.428,0.501-0.87,0.684-1.342
	c4.265-11.035-15.808-30.587-24.637-38.48c-15.578-13.929-8.148-29.495-7.367-31.013c0.271-0.401,0.542-0.807,0.81-1.229
	c4.042-6.375,8.503-9.69,12.922-9.603c3.931,0.083,7.285,2.882,8.865,5.621c0.245,0.425,0.79,0.572,1.214,0.325
	c0.425-0.245,0.571-0.789,0.326-1.214c-1.829-3.17-5.745-6.412-10.367-6.509c-6.382-0.151-11.397,5.596-14.46,10.427
	c-0.249,0.393-0.501,0.765-0.753,1.138c-0.024,0.033-0.049,0.065-0.068,0.102c-0.001,0.001-0.003,0.007-0.006,0.011
	c-5.123,7.525-10.868,11.079-15.176,12.75c2.298-1.914,4.823-4.939,6.903-9.711l0.271-0.62c4.862-11.165,8.075-18.541,20.699-20.785
	c13.362-2.375,18.779-5.912,19.003-6.061C176.152,117.489,176.263,116.938,175.99,116.529z M169.703,81.144
	c-5.765-0.47-11.991,4.174-14.178,10.57c-1.193,3.491-2.689,12.34,8.567,20.016c-1.877,1.979-3.449,3.888-4.706,5.539
	c-2.237-1.255-16.42-10.034-10.842-27.831c2.766-8.823,10.787-17.761,20.769-17.776h0.022c6.089,0,10.744,3.671,12.771,10.075
	c1.737,5.486,2.39,12.75,3.08,20.439c0.722,8.04,1.492,16.585,3.621,24.07c-4.138-10.278-6.764-22.852-8.235-31.592
	C179.201,86.519,175.24,81.595,169.703,81.144z M179.757,100.172c-5.771,2.64-10.614,6.493-14.399,10.266
	c-7.426-4.967-10.401-11.562-8.15-18.148c1.936-5.662,7.362-9.778,12.351-9.374c4.729,0.386,8.018,4.659,9.26,12.033
	C179.123,96.757,179.438,98.489,179.757,100.172z M178.003,151.293c0.177,1.411,0.617,2.755,1.312,4.029
	c-4.372-0.368-8.32,0.437-10.079,0.881c1.098-4.591,4.553-8.928,10.478-13.105C178.616,145.187,177.598,148.092,178.003,151.293z
	 M186.384,171.39c0.419-0.011,0.773-0.312,0.851-0.725c0.078-0.412-0.144-0.822-0.53-0.984c-0.34-0.143-8.41-3.477-16.257-3.313
	c-0.038,0-0.073,0.008-0.11,0.013c-1.123-2.733-1.686-5.484-1.423-8.248c0.793-0.231,6.159-1.698,11.708-0.868
	c1.083,1.346,2.484,2.6,4.207,3.752l0.79,0.528c6.909,4.608,16.258,10.854,19.394,22.969c-2.564-0.159-10.609-0.4-20.036,1.865
	c-0.699-0.814-1.405-1.628-2.101-2.429c-3.026-3.481-6.089-7.009-8.58-10.573C177.409,172.47,181.004,171.524,186.384,171.39z
	 M173.256,171.832c-0.792-1.223-1.503-2.45-2.114-3.68c3.922,0.016,7.926,0.926,10.789,1.77
	C178.367,170.344,175.687,171.115,173.256,171.832z M175.909,211.974c-1.023,2.646-3.739,4.482-8.102,5.489
	c-0.066,0.014-0.128,0.03-0.195,0.044c-0.027,0.005-0.051,0.016-0.076,0.023c-2.411,0.528-5.321,0.805-8.706,0.836
	c2.921-5.148,8.218-10.91,15.953-15.516C176.313,206.259,176.895,209.424,175.909,211.974z M156.947,180.312
	c-0.872,0.763-2.678,2.419-4.881,4.855c-0.191-3.349,0.101-6.243,0.883-8.622C154.076,177.575,155.443,178.851,156.947,180.312z
	 M150.366,186.428c0.016,0.178,0.093,0.328,0.194,0.459c-0.992,1.172-2.033,2.474-3.083,3.905
	c-1.31-3.104-4.223-11.744-0.851-20.973c1.313,1.826,2.929,3.65,4.904,5.442C150.382,178.263,149.984,182.01,150.366,186.428z
	 M138.11,209.554c-0.974,3.503-1.605,7.299-1.688,11.321c-6.655-10.587-5.981-22.742-4.824-29.562
	c0.688,4.871,2.331,12.035,6.26,17.988C137.927,209.404,138.013,209.489,138.11,209.554z M140.537,235.54
	c-1.292-3.734-2.056-7.49-2.303-11.258c0.128-0.269,0.116-0.589-0.05-0.853c-0.394-8.815,2.062-17.695,7.357-26.523
	c5.01-8.354,11.075-13.939,12.68-15.343c3.32,3.295,7.112,7.335,10.372,11.513c-6.458,4.032-11.558,9.394-15.158,15.958
	c-8.005,14.598-4.27,26.961,0.273,34.762c4.891,8.398,11.559,13.29,11.841,13.493c0.053,0.039,0.112,0.061,0.169,0.087
	c1.072,1.032,2.216,2.048,3.441,3.044c6.228,5.066,5.741,6.419,5.736,6.432c-0.113,0.263-1.191,0.413-2.092,0.294
	c-0.03-0.004-0.059-0.006-0.089-0.007C172.5,267.131,151.08,266.017,140.537,235.54z M155.245,242.901
	c-6.272-10.771-6.356-21.878-0.25-33.013c3.477-6.341,8.417-11.514,14.681-15.393c1.684,2.262,3.178,4.543,4.328,6.749
	c-8.754,5.2-18.504,14.889-19.585,24.212c-0.913,7.879,0.099,14.784,3.141,20.991C156.763,245.35,155.98,244.165,155.245,242.901z
	 M157.349,241.054c-0.286-0.931-0.527-1.879-0.729-2.843c0.85,0.214,1.91,0.425,3.162,0.575
	C158.681,239.553,157.888,240.382,157.349,241.054z M156.271,236.274c-0.497-3.328-0.522-6.854-0.087-10.612
	c0.189-1.624,0.762-3.501,1.716-5.511c0.053,0,0.108,0.001,0.161,0.001c3.755,0,6.98-0.303,9.693-0.89
	c0.01,0,0.019,0.005,0.028,0.005c0.057,0,0.116-0.005,0.173-0.017c9.71-1.92,16.481-7.491,20.123-16.56
	c1.097-2.729,1.235-5.76,0.436-8.888c4.614,7.163,6.187,15.256,4.297,22.73c-2.023,8.005-7.898,14.521-16.119,17.881
	C166.665,238.513,159.266,237.167,156.271,236.274z M187.395,189.244c-0.366-0.444-0.74-0.892-1.119-1.342
	c9.531-2.145,17.626-1.688,19.148-1.575c0.754,3.813,0.91,8.175,0.231,13.202c-4.657-1.929-9.005-2.061-13.029-1.87
	C191.326,194.735,189.577,191.902,187.395,189.244z M186.957,102.017c-0.699-7.789-1.36-15.147-3.155-20.816
	c-2.278-7.193-7.549-11.317-14.465-11.317h-0.026c-4.463,0.007-9.134,1.796-13.152,5.038c-4.314,3.48-7.533,8.316-9.309,13.984
	c-5.758,18.369,8.533,28.032,11.477,29.794c-1.174,1.632-1.951,2.869-2.302,3.451c-4.811,0.911-8.342,2.559-11.117,4.828
	c-0.452-2.098-1.636-6.86-4.095-12.674c-6.104-14.425-6.226-26.409-0.365-35.618c7.859-12.352,18.703-16.916,26.229-17.07
	c14.52-0.292,23.071,6.82,25.482,21.16c-0.015,0.076-0.023,0.153-0.019,0.234c0.009,0.134,0.053,0.253,0.113,0.363
	c0.216,1.394,0.377,2.849,0.479,4.375c0.484,7.263,0.324,14.209,0.183,20.338c-0.309,13.403-0.564,24.544,5.808,32.229
	C189.676,132.223,188.239,116.297,186.957,102.017z M136.734,63.679c0-0.059-0.028-5.938,4.842-9.491
	c5.148-3.755,13.691-3.664,25.391,0.272c0.005,0.002,0.01,0.002,0.015,0.004c2.71,2.188,5.535,4.367,8.536,6.234
	c-2.604-0.619-5.549-0.929-8.878-0.857c-6.715,0.136-15.892,3.543-23.539,12.316c-1.128-0.915-4.518-3.9-6.437-8.122
	C136.711,63.926,136.736,63.806,136.734,63.679z M135.48,60.198c-0.01-0.065-0.024-0.13-0.034-0.196
	c-0.561-3.793,0.542-7.556,3.255-11.148c8.289-9.965,15.604-4.723,24.639,2.641c-10.169-2.79-17.835-2.375-22.812,1.257
	C137.491,54.968,136.109,57.917,135.48,60.198z M165.739,51.158c-9.565-7.831-18.601-15.227-28.43-3.409
	c-3.037,4.02-4.254,8.23-3.621,12.514c1.029,6.957,6.594,11.909,8.272,13.261c-1.041,1.296-2.05,2.694-3.013,4.208
	c-0.538,0.846-1.025,1.713-1.468,2.6c-2.938-1.916-15.761-11.337-9.988-26.396c3.52-9.182,10.429-15.555,18.484-17.048
	c6.788-1.26,13.373,1.21,18.507,6.913c8.767,11.041,17.461,17.891,25.845,20.365C180.675,63.384,172.843,56.974,165.739,51.158z
	 M194.568,117.425c6.001-0.801,12.717,0.802,18.277,4.297c-8.578,6.646-14.688,9.807-16.44,10.655
	C195.006,128.111,194.609,123.117,194.568,117.425z M197.021,134.055c1.665-0.786,8.086-4.03,17.373-11.287
	c0.341,0.246,0.679,0.497,1.008,0.758c1.399,1.11,2.898,2.526,4.312,4.28c-3.35,1.113-12.755,4.729-19.127,11.948
	C199.05,138.052,197.888,136.152,197.021,134.055z M214.302,102.922c-1.098-0.657-2.198-1.255-3.3-1.806
	c7.242-2.479,12.925-8.906,18.898-15.669c6.572-7.443,13.368-15.138,22.644-17.655c4.066-1.242,7.552-0.795,10.356,1.331
	c4.689,3.552,6.924,11.146,7.984,17.864c-1.404-2.919-3.301-4.767-5.675-5.498c-4.806-1.478-11.355,1.686-19.465,9.409
	c-12.316,11.731-18.536,18.237-18.575,18.28c-0.692,0.676-1.374,1.33-2.051,1.971C222.338,108.356,218.806,105.617,214.302,102.922z
	 M242.354,48.584c4.127-3.2,7.69-5.963,11.434-7.272c3.323-1.276,6.773-2.038,9.228-2.038c0.893,0,1.418,0.107,1.686,0.2
	c-0.285,0.308-1.121,0.984-3.477,1.965c-8.673,3.614-13.734,10.341-14.809,11.878c-1.82,0.436-9.913,2.95-25.216,15.615
	c-11.808,9.771-19.577,12.391-27.385,13.064c-1.182-6.457-3.857-12.864-9.338-17.117c2.447,0.735,5.015,1.162,7.728,1.162
	c2.494,0,5.112-0.361,7.868-1.167C221.734,64.568,233.167,55.708,242.354,48.584z M104.487,62.712
	c0.013-0.079,0.012-0.156,0.004-0.232c2.867-22.144,14.269-32.349,23.365-37.008c5.71-2.925,11.832-4.535,17.234-4.535
	c7.489,0,13.546,2.906,18.003,8.636c1.633,2.099,3.142,4.075,4.556,5.927c7.069,9.254,11.739,15.369,17.663,18.416
	c2.994,1.539,5.665,2.32,7.938,2.32c1.546,0,2.434-0.379,2.713-0.522c26.05-9.876,23.047-35.38,22.06-43.765l-0.015-0.124
	c5.12,9.167,6.423,18.066,3.871,26.449c-4.322,14.197-18.514,22.797-21.693,24.573c-0.771,0.266-4.144,1.207-9.571-0.449
	c-5.478-1.671-14.216-6.446-24.777-19.742c-5.599-6.221-12.767-8.891-20.187-7.514c-8.667,1.607-16.077,8.396-19.819,18.16
	c-6.378,16.639,8.107,26.879,10.898,28.662c-2.818,6.66-3.12,14.426-0.902,23.212c-0.679-1.706-1.502-3.204-2.356-4.487
	c-4.193-6.299-10.917-10.419-17.106-12.233c-0.009-0.008-0.015-0.018-0.024-0.025C102.382,76.775,104.465,62.85,104.487,62.712z
	 M112.839,87.662c-1.317-0.204-2.583-0.303-3.751-0.269c-0.51-0.021-5.119-0.147-10.65,2.012
	c-5.303,2.07-12.463,6.721-16.457,17.125c-3.248,8.461-1.692,16.604,4.269,22.34c5.99,5.765,15.326,7.812,22.194,4.868
	c6.274-2.689,10.248-7.435,10.903-13.021c0.5-4.264-1.112-8.337-4.205-10.632c-3-2.226-6.58-2.923-10.083-1.962
	c-3.521,0.965-6.458,3.536-7.858,6.875c-0.161,0.384-0.034,0.829,0.306,1.069s0.802,0.212,1.11-0.067
	c0.043-0.04,4.377-3.911,8.583-3.707c1.635,0.082,3.004,0.757,4.185,2.063c1.82,2.016,1.813,4.92-0.02,7.771
	c-2.453,3.817-7.724,6.802-13.065,5.11c-0.1-0.03-9.986-3.036-13.116-10.95c-1.884-4.763-0.963-10.381,2.735-16.698
	c0.063-0.109,0.102-0.226,0.116-0.344c8.215-10.569,20.388-10.108,21.001-10.077c0.024,0.002,0.05,0.002,0.074,0.001
	c7.012-0.212,17.48,4.388,22.881,12.5c4.688,7.042,4.956,15.603,0.775,24.758c-12.031,26.346-32.264,22.195-38.913,20.831
	c-0.339-0.07-0.721-0.173-1.131-0.3c-0.098-0.055-0.208-0.09-0.327-0.104c-5.274-1.769-15.303-7.926-20.564-17.457
	c-4.212-7.631-4.69-15.91-1.421-24.606c8.716-23.186,29.769-29.675,33.677-30.695C105.477,78.247,108.073,83.034,112.839,87.662z
	 M112.704,113.167c-1.492-1.653-3.314-2.542-5.416-2.648c-1.994-0.1-3.959,0.532-5.6,1.332c1.111-0.926,2.42-1.623,3.841-2.013
	c2.964-0.813,6.001-0.217,8.553,1.675c2.583,1.917,3.924,5.365,3.499,8.999c-0.579,4.937-4.165,9.163-9.837,11.594
	c-6.242,2.674-14.763,0.776-20.261-4.516c-2.759-2.655-6.681-8.06-5.031-16.364c0.004,1.999,0.363,3.907,1.079,5.716
	c3.445,8.71,13.825,11.87,14.249,11.995c6.176,1.955,12.262-1.462,15.082-5.848C115.154,119.523,115.095,115.814,112.704,113.167z
	 M66.841,120.378c-3.316,0.113-6.125,1.975-8.174,5.424c-1.065,1.792-1.672,3.585-1.971,4.634c-0.719-1.199-1.059-3.265-0.91-5.795
	c0.388-6.575,4.389-17.58,13.76-22.47c-0.276,0.653-0.544,1.316-0.8,1.997C66.648,109.747,66.021,115.167,66.841,120.378z
	 M56.721,132.914c0.92,0.511,1.791,0.767,2.605,0.767c0.592,0,1.154-0.135,1.683-0.405c2.115-1.08,2.925-3.987,3.203-5.409
	c0.125,0.162,0.254,0.402,0.367,0.771c0.566,1.86,0.334,3.727-0.652,5.257c-1.016,1.575-2.742,2.627-4.735,2.888
	c-5.078,0.664-11.115-2.428-12.834-13.087c-2.058-12.753,5.738-27.73,18.131-34.838c9.455-5.422,16.773-6.455,20.088-6.613
	c-5.089,4.092-10.175,9.738-13.912,17.451c-0.014,0.005-0.029,0.007-0.042,0.013c-11.39,4.673-16.174,17.408-16.611,24.829
	C53.762,128.765,54.75,131.819,56.721,132.914z M60.199,131.693c-0.54,0.275-1.167,0.274-1.899,0c0.971-1.386,2.704-3.1,4.091-3.822
	C62.083,129.193,61.405,131.079,60.199,131.693z M35.604,131.957c-4.969-9.464-8.328-24.463,3.892-42.183
	C55.617,66.397,80.032,62.906,93.15,62.906c4.596,0,8.012,0.425,9.463,0.643c-0.115,1.624-0.125,4.848,0.958,8.848
	c-2.296,0.608-9.29,2.771-16.718,8.115c-0.047-0.013-0.094-0.025-0.144-0.03c-0.385-0.042-9.578-0.926-23.105,6.833
	c-13.002,7.457-21.171,23.218-19.002,36.664c2.118,13.125,9.928,14.65,13.439,14.65c0.604,0,1.081-0.045,1.379-0.084
	c2.513-0.327,4.7-1.671,5.999-3.687c1.275-1.977,1.581-4.37,0.86-6.737c-0.532-1.746-1.575-2.24-2.356-2.347
	c-1.34-0.184-2.857,0.672-4.184,1.781c1.331-2.579,3.663-5.397,7.436-5.4c0.617,2.766,1.646,5.47,3.099,8.104
	c0.935,1.693,2.006,3.279,3.167,4.758c0.003,0.025,0.003,0.05,0.009,0.075c1.032,4.573,0.244,9.159-1.256,13.235
	c-9.386-1.602-14.898,0.803-15.911,1.306c-0.163,0.023-0.332,0.042-0.518,0.042C51.233,149.675,41.368,142.934,35.604,131.957z
	 M36.746,174.057c2.899-13.908,20.021-22.675,20.193-22.762c0.005-0.002,0.007-0.006,0.011-0.008
	c0.005-0.003,0.011-0.004,0.017-0.006c0.053-0.029,5.245-2.75,14.555-1.263c-1.595,3.725-3.691,6.923-5.347,9.142
	c-0.077,0.103-0.148,0.203-0.224,0.305c-1.662-0.634-8.776-2.966-15.658,0.613c-5.48,2.852-16.595,11.097-10.843,29.182
	C36.617,184.142,35.706,179.049,36.746,174.057z M51.728,167.388c-4.455,0-7.999,3.417-10.247,9.881
	c-1.037,2.979-1.16,6.18-0.918,9.085c-1.89-8.041-1.382-18.49,10.551-24.699c5.656-2.944,11.688-1.378,13.747-0.689
	c-2.98,4.187-5.049,7.746-5.84,9.162C56.457,168.315,54.007,167.388,51.728,167.388z M54.968,187.631
	c0.048-0.098,0.077-0.203,0.087-0.312c0.76-8.37,4.966-15.348,5.009-15.418c0.022-0.035,0.027-0.076,0.043-0.113
	c0.044-0.051,0.086-0.104,0.12-0.166c0.028-0.052,2.83-5.311,7.373-11.4c3.47-4.651,8.788-13.419,8.022-22.66
	c3.073,3.303,6.525,5.936,9.697,7.852c-0.758,1.882-3.696,8.489-10.29,16.058c-4.669,5.361-17.071,19.601-13.459,30.836
	c1.758,5.469,7.061,9.455,15.765,11.869c-4.462,0.483-12.962-0.833-16.464-3.835c-5.797-4.969-5.91-12.23-5.911-12.361
	c0-0.088-0.017-0.171-0.04-0.25C54.947,187.676,54.965,187.637,54.968,187.631z M53.585,191.182c0.603,2.807,2.116,6.944,5.894,10.3
	c-0.282,1.896-1.279,11.823,6.991,19.497c-5.649-2.051-9.796-5.013-12.356-8.859c-2.273-3.415-2.77-6.817-2.807-8.999
	C51.553,198.22,52.653,193.979,53.585,191.182z M54.256,219.188c-1.134-2.427-1.887-4.876-2.356-7.281
	c0.218,0.385,0.454,0.772,0.711,1.161c3.813,5.759,10.782,9.667,20.698,11.615c1.548,0.331,2.975,0.479,4.291,0.479
	c7.256,0,11.088-4.494,12.836-7.497c1.646-2.826,2.487-6.161,2.329-8.552c1.22,0.722,2.612,1.475,4.211,2.272
	c0.184,0.544,0.555,1.741,0.838,3.235c-1.643,1.56-12.395,12.443-10.263,27.732C70.508,237.794,59.31,230.007,54.256,219.188z
	 M52.744,279.69c0.241,0.728,0.454,1.989,0.342,3.888c-0.162,2.745,0.255,8.14,4.858,13.425c4.854,5.572,12.964,9.475,24.107,11.598
	c2.666,0.507,5.127,0.765,7.315,0.765c8.036-0.001,11.292-3.431,12.608-6.309c2.652-5.794-0.323-14.023-4.469-18.823
	c-3.379-3.913-8.33-5.72-13.116-7.466c-6.015-2.195-11.696-4.269-13.16-10.334c-2.282-9.458,13.911-19.308,17.723-21.478
	c0.077-0.019,0.153-0.046,0.224-0.086c0.095-0.053,9.546-5.258,19.561-7.375c0.048-0.011,0.094-0.027,0.139-0.045
	c0.753,0.712,1.346,1.549,1.501,2.477c0.091,0.546,0.085,1.512,0.08,2.631c-0.026,5.116-0.074,15.383,9.628,18.157
	c-4.721,1.888-7.299,4.118-7.662,6.651c-0.273,1.914,0.772,3.499,1.749,4.528c0.015,0.021,0.026,0.043,0.042,0.062
	c0.157,0.187,15.514,18.77,2.152,31.621c-16.116,15.499-40.762,8.551-41.042,8.47c-0.154-0.039-15.515-4.024-21.487-15.062
	C51.1,291.922,50.737,286.107,52.744,279.69z M127.533,298.538c-2.021,7.993-9.242,14.607-20.335,18.624
	c-5.983,2.166-12.129,3.265-18.27,3.265c-12.688,0-21.199-4.734-21.283-4.782c-0.024-0.014-0.05-0.026-0.074-0.038
	c-0.205-0.093-20.48-9.455-18.052-29.068c0.092-0.458,0.184-0.88,0.277-1.286c-0.418,4.535,0.406,8.749,2.483,12.586
	c6.352,11.729,21.952,15.767,22.581,15.924c0.122,0.036,5.92,1.677,13.785,1.676c8.754,0,20.069-2.033,28.955-10.579
	c10.118-9.731,5.263-22.298,1.313-29.116c1.288,1.086,2.398,2.066,2.42,2.085l0.002,0.002
	C127.048,284.391,129.254,291.729,127.533,298.538z M141.898,312.132c-0.366-0.946-0.556-1.938-0.547-2.975
	c0.033-3.675,2.395-7.123,3.888-8.938C146.187,308.206,143.229,311.208,141.898,312.132z M146.755,298.274
	c-0.013-0.076-0.038-0.146-0.069-0.214c-0.001-0.006,0-0.012-0.002-0.019c-4.565-19.402-22.523-21.779-24.687-21.995
	c-1.158-1.011-3.976-3.439-5.37-4.37c-1.025-0.684-2.694-2.31-2.444-4.059c0.193-1.351,1.568-3.278,6.585-5.267
	c1.393,0.415,14.868,4.609,23.304,13.871c0.029,0.031,0.061,0.056,0.093,0.082c0.727,4.338,2.955,7.216,5.524,9.124
	c1.075,3.119,1.452,6.439,1.122,9.869c-1.337,13.869-4.322,17.081-5.982,17.761c-0.515,0.211-0.999,0.216-1.407,0.135
	C145.361,311.57,148.339,307.486,146.755,298.274z M159.959,295.096c-0.003,0.021-0.01,0.04-0.013,0.062
	c-0.478,4.629-1.606,8.441-1.618,8.479c-0.018,0.061-0.029,0.122-0.033,0.183c-1.432,4.029-5.667,13.007-10.664,13.007
	c-1.173,0-2.379-0.492-3.586-1.464c-0.115-0.116-0.216-0.236-0.323-0.354c0.064,0.003,0.124,0.014,0.19,0.014
	c0.483,0,1.008-0.086,1.558-0.306c3.627-1.451,6.02-7.928,7.111-19.249c0.286-2.966,0.069-5.858-0.627-8.629
	c3.256,1.699,6.517,2.166,7.688,2.283c0.41,3.733,0.311,5.896,0.31,5.919C159.951,295.06,159.959,295.076,159.959,295.096z
	 M172.2,314.585c-0.642,1.872-1.478,3.303-2.059,3.987c0.021-0.342,0.085-0.843,0.249-1.564c0.857-3.799,0.364-6.976-1.467-9.443
	c-2.461-3.317-6.632-4.371-8.547-4.69c0.154-0.61,0.344-1.416,0.539-2.368c1.03,0.177,4.291,0.874,7.102,2.973
	C169.42,304.526,173.859,308.418,172.2,314.585z M161.619,296.2c7.66,2.075,10.408,6.297,11.22,10.054
	c-0.883-1.568-2.145-2.995-3.76-4.2c-3.097-2.312-6.605-3.084-7.836-3.296C161.38,297.96,161.509,297.101,161.619,296.2z
	 M166.881,328.705c7.171,0,12.819-2.424,15.901-6.828c2.779-3.969,3.171-9.276,1.106-14.947
	c-3.077-8.448-8.625-13.274-13.543-16.013c0.92,0.251,1.865,0.536,2.822,0.863c8.92,3.045,14.368,7.925,16.189,14.506
	c1.896,6.853-0.197,16.969-7.812,22.219c-4.505,3.104-13.982,6.38-29.628-2.774C157.184,327.69,162.249,328.705,166.881,328.705z
	 M175.113,280.634c0.65,3.594,3.022,6.496,6.508,7.964c7.229,3.043,10.744,6.491,10.778,6.524
	c7.971,7.972,10.408,17.695,6.688,26.678c-3.696,8.924-12.652,14.92-22.284,14.92c-0.876,0-1.764-0.05-2.638-0.148
	c-10.438-1.176-18.155-5.448-23.214-9.352c7.997,4.688,14.517,6.28,19.662,6.28c5.492-0.001,9.426-1.799,11.94-3.532
	c7.278-5.018,10.939-15.402,8.518-24.156c-4.711-17.017-29.822-18.378-30.891-18.428c-0.544-0.023-13.314-0.725-14.412-12.526
	c-0.992-10.664,2.409-17.99,3.345-19.771c2.917,3.563,6.438,6.834,10.696,9.383c6.751,4.041,12.202,4.415,12.797,4.444
	c0.174,0.022,0.504,0.056,0.905,0.056c1.021,0,2.5-0.22,3.016-1.409c0.763-1.758-1.164-4.385-6.244-8.518
	c-1.117-0.909-2.164-1.834-3.148-2.773c7.405,2.783,12.831,6.909,14.703,8.447C176.659,269.886,174.211,275.645,175.113,280.634z
	 M225.799,302.785c1.233,0.229,2.43,0.328,3.583,0.328c7.934,0,13.715-4.744,13.991-4.975c0.051-0.043,0.095-0.091,0.134-0.142
	c-0.084,0.247-0.193,0.539-0.341,0.9c-2.325,5.661-9.438,9.769-16.914,9.769c-8.378,0-15.441-4.94-19.38-13.554
	c-7.554-16.523-18.42-27.563-23.148-31.125c-0.507-0.459-6.694-5.944-16.067-9.428c2.315-0.054,5.601,0.253,9.502,1.704
	c13.142,4.89,23.033,18.729,29.018,29.478C211.698,295.66,218.3,301.396,225.799,302.785z M192.921,247.445
	c-1.485-1.153-5.228-3.838-9.597-5.314c3.627-0.689,8.79-1.736,12.604-2.776c1.525-0.416,3.036-0.782,4.539-1.126
	c0.166,1.536,0.416,3.007,0.732,4.493C196.238,244.654,193.912,246.465,192.921,247.445z M200.316,236.441
	c-1.607,0.363-3.226,0.753-4.856,1.198c-6.4,1.745-16.7,3.519-16.804,3.536c-0.441,0.076-0.758,0.468-0.738,0.915
	s0.368,0.81,0.814,0.848c6.737,0.562,13.651,6.351,13.721,6.409c0.013,0.011,0.026,0.018,0.04,0.027
	c0.015,0.011,0.026,0.023,0.042,0.034c4.694,3.13,9.52,13.098,15.659,32.361c2.284,6.091,4.84,10.495,7.462,13.655
	c-2.832-2.645-5.481-6.157-7.927-10.549c-11.16-20.046-22.53-27.561-30.104-30.336c-6.694-2.453-11.636-1.782-13.451-1.382
	c-2.703-3.139-4.733-6.465-6.107-10.028c0.232-0.409,1.74-2.871,5.049-4.097c0.03-0.011,0.056-0.027,0.083-0.041
	c0.034,0,0.064,0.002,0.098,0.002c3.766,0,8.551-0.681,14.068-2.935c8.748-3.575,15.007-10.533,17.17-19.091
	c1.449-5.731,0.996-11.79-1.19-17.562c3.53-0.138,7.591-0.001,12.027,1.935c-0.176,1.037-0.373,2.092-0.62,3.184
	C201.03,221.01,199.878,229.587,200.316,236.441z M203.19,232.323c0.409-11.245,3.684-20.336,6.656-28.579
	c4.284-11.881,7.984-22.143,1.445-34.402c-3.085-5.785-6.776-8.923-9.742-11.444c-3.867-3.288-5.997-5.098-3.849-10.317
	c0.494-1.199,1.099-2.326,1.776-3.392c1.999,1.124,3.656,1.376,4.708,1.376c0.749,0,1.194-0.123,1.238-0.136
	c0.34-0.099,0.589-0.391,0.633-0.743c0.045-0.352-0.125-0.696-0.43-0.876c-1.432-0.844-2.681-1.768-3.772-2.77
	c2.983-3.391,6.646-5.917,9.693-7.637c4.148-2.341,7.9-3.646,9.29-4.09c1.366,1.969,2.588,4.296,3.464,7.042
	c-7.632,1.575-13.338,6.217-15.287,12.464c-1.915,6.143,0.089,12.85,5.499,18.401c7.243,7.433,8.312,17.24,3.178,29.149
	c-4.581,10.625-10.298,22.563-10.353,22.678C205.146,223.555,203.887,228.133,203.19,232.323z M241.524,264.14
	c2.502-2.998,3.477-6.865,2.745-10.889c-1.785-9.818-14.288-14.29-25.149-14.29c-3.279,0-6.481,0.385-9.519,1.144
	c-2.012,0.503-3.79,1.02-5.374,1.537c0.006-1.295,0.056-2.718,0.171-4.234c5.55-1.048,10.847-1.584,15.602-1.559
	c13.208,0.099,21.802,4.401,25.546,12.788c3.235,7.245,0.754,11.943-1.896,14.608c-1.246,1.255-2.775,2.3-4.471,3.116
	C240.045,265.706,240.835,264.966,241.524,264.14z M260.22,227.109c-3.561,0-6.688-0.819-7.681-1.107
	c-0.061-0.037-0.125-0.068-0.196-0.09c-15.908-4.797-17.145-15.392-17.145-18.524c0-1.804,0.441-3.881,1.073-5.867
	c-0.324,2.375-0.151,4.711,0.528,6.995c2.025,6.803,7.887,10.812,9.78,11.679c3.145,1.441,6.796,2.445,10.247,2.444
	c4.413,0,8.497-1.642,10.767-6.108c2.73-5.373,0.131-9.652-1.311-11.431c1.639-0.835,3.484-1.482,5.558-1.86
	c1.982,4.723,2.25,8.958,2.269,9.288C273.927,222.203,269.255,227.109,260.22,227.109z M251.215,238.641
	c-0.92-1.154-1.966-2.329-3.152-3.521c-0.013-0.047-0.026-0.094-0.048-0.14c-1.753-3.799-1.599-7.832-1.452-9.389
	c1.375,0.655,2.845,1.241,4.404,1.75C250.467,231.617,250.547,235.394,251.215,238.641z M241.995,208.513
	c4.567,5.732,13.774,6.349,14.164,6.371c0.336,0.023,0.663-0.155,0.829-0.453c1.65-2.957,4.121-6.156,7.733-8.439
	c1.099,1.254,3.711,4.965,1.287,9.733c-1.798,3.541-4.985,5.264-9.497,5.145c-4.147-0.117-8.083-1.782-9.19-2.29
	c-2.143-0.982-7.116-4.858-8.817-10.571c-1.189-3.994-0.643-8.203,1.623-12.533c-0.042,0.733-0.148,1.727-0.373,3.075
	C239.1,202.474,239.854,205.825,241.995,208.513z M286.64,226.677c-0.086-1.579-0.167-3.072-0.288-4.36
	c-0.892-9.517-6.186-10.938-9.263-10.938c-0.489,0-0.925,0.037-1.286,0.085c-0.171-1.59-0.676-4.845-2.139-8.479
	c1.385-0.137,2.86-0.161,4.439-0.044c3.177,0.198,6.216,0.195,9.051,0.066c0.535,0.323,5.839,3.663,6.617,9.243
	c0.851,6.096-2.159,15.809-2.188,15.901c-0.157,0.49-3.771,12.131,2.587,22.995c3.051,5.213,7.865,9.298,14.352,12.231
	C288.306,257.312,287.29,238.655,286.64,226.677z M303.242,216.858c-2.915,5.457-6.22,11.644-6.22,21.146
	c0,14.334,12.99,22.856,20.778,26.679c-10.602-2.66-18.029-7.497-22.086-14.415c-5.963-10.168-2.475-21.461-2.438-21.578
	c0.13-0.413,3.161-10.19,2.255-16.685c-0.615-4.404-3.546-7.508-5.573-9.17c7.907-0.611,13.79-2.115,15.779-2.678
	C308.735,206.575,306.3,211.136,303.242,216.858z M304.973,176.616c1.601,0,3.094,0.167,4.472,0.467
	c0.055,0.029,0.113,0.054,0.175,0.07c2.371,0.67,6.26,2.255,5.671,5.351c-0.53,2.783-4.412,6.024-9.891,8.258
	c-6.503,2.65-14.321,3.681-21.995,2.905c-5.327-0.662-10.37-0.235-14.795,0.669c1.468-0.565,3.001-1.108,4.582-1.605
	c5.473-1.722,9.765-3.587,13.248-5.828c0.086,0.079,0.188,0.145,0.305,0.187c0.176,0.063,3.218,1.144,6.936,1.144
	c1.468,0,3.043-0.169,4.587-0.635c3.168-0.957,5.08-2.759,4.988-4.702c-0.098-2.069-2.291-3.709-6.513-4.89
	C299.438,177.098,302.244,176.616,304.973,176.616z M301.479,182.979c0.049,1.024-1.519,2.251-3.726,2.918
	c-3.736,1.126-7.809,0.26-9.542-0.217c2.484-1.846,4.521-3.943,6.273-6.404C299.542,180.393,301.429,181.904,301.479,182.979z
	 M296.388,172.413c-0.007,0.013-0.018,0.024-0.023,0.037c-0.862,1.869-1.98,3.76-2.487,4.592c-0.086,0.134-0.176,0.264-0.263,0.396
	c-0.262,0.109-0.465,0.341-0.524,0.641c-0.011,0.049-0.014,0.098-0.015,0.146c-4.207,5.927-10.111,9.568-20.417,12.811
	c-11.548,3.633-20.581,9.628-20.671,9.688c-0.404,0.271-0.517,0.816-0.25,1.225c0.17,0.261,0.454,0.403,0.745,0.403
	c0.163,0,0.328-0.045,0.476-0.139c0.139-0.087,14.063-8.787,30.247-6.779c17.084,1.73,32.477-5.478,33.831-12.597
	c0.061-0.316,0.099-0.675,0.092-1.062c0.757,1.122,1.251,2.396,1.431,3.803c1.076,8.426-12.472,12.624-12.608,12.665
	c-0.002,0.001-0.005,0.002-0.007,0.003c-0.003,0.001-0.006,0.001-0.009,0.002c-0.122,0.039-12.283,3.89-27.71,2.922
	c-12.252-0.907-18.974,5.843-22.501,11.891c-1.975-0.218-8.85-1.276-12.338-5.653c-1.813-2.277-2.446-5.158-1.879-8.562
	c0.838-5.026,0.267-6.207-0.402-6.698c-0.436-0.32-0.995-0.347-1.536-0.074c-2.713,1.374-6.147,10.68-6.147,15.317
	c0,7.151,4.169,13.316,11.452,17.338c-0.098,0.647-0.517,3.995,0.428,7.822c-0.345-0.299-0.695-0.598-1.059-0.898
	c-4.479-3.702-8.422-5.67-11.902-7.407c-1.019-0.509-1.99-0.993-2.915-1.492c-1.072-3.766-2.735-6.263-4.946-7.427
	c-2.204-1.16-4.123-0.512-4.204-0.483c-0.249,0.087-0.445,0.279-0.539,0.526c-0.092,0.246-0.071,0.521,0.059,0.751
	c3.043,5.369,7.079,7.384,11.752,9.716c3.395,1.694,7.242,3.614,11.564,7.187c9.697,8.016,12.278,15.469,12.634,20.564
	c-0.001,0.042,0.002,0.085,0.008,0.127c0.241,3.837-0.771,6.301-0.91,6.617c-5.075,9.669-13.045,11.7-18.842,11.7
	c-4.994,0-9.55-1.438-12.418-2.758c1.965,0.626,4.091,0.93,6.247,0.93c5.624,0,11.444-2.043,15.081-5.7
	c4.302-4.326,5.104-10.217,2.26-16.588c-4.054-9.079-13.19-13.736-27.157-13.841c-4.714-0.03-9.955,0.482-15.441,1.491
	c0.524-4.812,1.754-10.366,4.368-15.742c0.058-0.12,5.789-12.089,10.385-22.747c5.447-12.634,4.257-23.095-3.538-31.094
	c-4.94-5.07-6.79-11.131-5.075-16.631c1.765-5.656,7.024-9.866,14.079-11.283c0.413,1.656,0.703,3.447,0.83,5.383
	c1.776,26.931,13.331,41.659,13.822,42.272c0.174,0.218,0.433,0.334,0.694,0.334c0.162,0,0.325-0.044,0.471-0.136
	c0.383-0.239,0.525-0.728,0.331-1.135c-7.029-14.788-6.556-27.578-6.137-38.863c0.453-12.257,0.851-23.243-8.457-33.486
	c0.684-0.648,1.375-1.311,2.09-2.01c0.061-0.064,6.25-6.54,18.536-18.24c7.502-7.144,13.629-10.253,17.716-8.999
	c2.975,0.916,5.089,4.188,6.281,9.717c2.361,11.583-0.24,21.808-2.534,30.829c-1.889,7.426-3.533,13.937-1.385,18.897
	c-0.835,1.11-4.862,6.846-3.826,12.863c0.508,2.955,2.152,5.483,4.894,7.532c-4.827,1.103-10.455,1.088-16.859-0.067
	c-0.022-0.003-0.044-0.007-0.065-0.009c-0.011-0.001-1.208-0.165-2.229-1.638c-1.301-1.875-2.373-5.931-0.216-14.63
	c1.003-2.998,2.438-5.49,3.842-7.93c2.354-4.09,4.577-7.953,4.732-13.707c0.097-3.579-0.878-6.233-2.897-7.888
	c-3.285-2.693-8.061-1.641-8.264-1.594c-0.477,0.108-0.775,0.584-0.667,1.062s0.583,0.779,1.062,0.671
	c0.041-0.009,4.145-0.9,6.749,1.242c1.567,1.289,2.32,3.462,2.239,6.459c-0.144,5.304-2.258,8.978-4.496,12.868
	c-1.329,2.31-2.686,4.666-3.709,7.445c-0.073,0.094-0.13,0.204-0.161,0.326c-0.042,0.162-0.083,0.323-0.122,0.482
	c-0.605,1.809-1.063,3.802-1.285,6.074c-0.503,5.16,0.429,9.293,1.25,12.939c1.098,4.867,1.89,8.384-1.571,11.688
	c-0.256,0.244-0.343,0.617-0.221,0.949c0.122,0.333,0.43,0.561,0.783,0.581c0.081,0.004,0.715,0.039,1.783,0.039
	c2.479,0,7.295-0.186,12.95-1.361c7.509-1.562,17.917-5.245,24.87-13.927c8.393-10.481,9.956-25.677,4.662-45.177
	c0.223,0.298,0.48,0.654,0.782,1.086c6.834,9.818,9.232,18.12,9.256,18.202c0.019,0.062,0.043,0.121,0.072,0.177
	c1.379,4.786,1.694,10.179,1.757,11.653c-0.287,7.128-1.153,10.759-1.625,12.248c-0.04,0.063-0.075,0.131-0.098,0.207
	c-0.06,0.188-0.117,0.367-0.175,0.553c-0.025,0.057-0.039,0.085-0.04,0.088c-0.04,0.076-0.069,0.159-0.085,0.244
	c-0.005,0.021-0.013,0.068-0.021,0.13C298.896,166.3,297.708,169.567,296.388,172.413z M227.081,221.362
	c-1.895-1.251-3.562-2.751-5.017-4.941c0.465,0.041,1.027,0.173,1.627,0.497C225.053,217.652,226.206,219.171,227.081,221.362z
	 M321.339,159.686c-4.076,0-9.343,3.978-12.613,7.385c-3.204,3.338-7.807,4.391-10.126,4.718c0.852-1.963,1.652-4.096,2.44-6.434
	c0.329,0.238,0.797,0.434,1.452,0.434c1.894-0.001,4.844-1.675,9.021-5.119c2.316-1.91,4.519-2.879,6.546-2.879
	c2.049,0,3.6,0.994,4.645,2.065C322.276,159.743,321.82,159.686,321.339,159.686z M127.503,169.292l-1.096,0.816
	c-0.366,0.269-0.727,0.552-1.102,0.798l-1.104,0.755c-0.041-0.03-0.086-0.055-0.139-0.068c-0.701-0.185-1.397-0.398-2.105-0.563
	c-0.047-0.059-0.105-0.11-0.178-0.146l-0.032-0.016c0,0-0.154-0.077-0.385-0.192c-0.117-0.058-0.252-0.126-0.398-0.198
	c-0.145-0.075-0.307-0.148-0.457-0.234c-0.28-0.184-0.604-0.359-0.791-0.516c-0.097-0.079-0.184-0.143-0.241-0.196
	c-0.053-0.057-0.084-0.09-0.084-0.09l-0.003-0.004c-0.021-0.022-0.055-0.03-0.085-0.017c-0.038,0.018-0.054,0.062-0.037,0.099
	c0,0,0.018,0.04,0.05,0.11c0.037,0.069,0.102,0.165,0.178,0.285c0.035,0.057,0.087,0.117,0.13,0.174
	c-0.028-0.016-0.051-0.029-0.087-0.05c-0.056-0.032-0.122-0.07-0.19-0.109c-0.049-0.049-0.098-0.099-0.145-0.145
	c-0.072-0.065-0.103-0.127-0.144-0.185c-0.085-0.112-0.115-0.221-0.115-0.221c-0.006-0.023-0.024-0.043-0.049-0.052
	c-0.039-0.013-0.082,0.009-0.095,0.048l-0.004,0.013c0,0-0.01,0.035-0.017,0.094c-0.024-0.028-0.045-0.055-0.064-0.082
	c-0.095-0.105-0.134-0.213-0.134-0.213c-0.009-0.023-0.029-0.042-0.055-0.048c-0.041-0.01-0.081,0.016-0.09,0.056l-0.002,0.011
	c0,0-0.006,0.026-0.008,0.075c-0.081-0.099-0.11-0.2-0.11-0.2c-0.006-0.022-0.023-0.041-0.046-0.049
	c-0.039-0.014-0.082,0.006-0.097,0.045l-0.004,0.014c0,0-0.031,0.084-0.028,0.249v0.055c-0.005-0.005-0.012-0.011-0.016-0.016
	c-0.088-0.08-0.13-0.171-0.13-0.171c-0.01-0.02-0.027-0.036-0.05-0.042c-0.041-0.011-0.082,0.014-0.093,0.055l-0.003,0.012
	c0,0-0.021,0.082-0.001,0.239c0.001,0.036,0.013,0.072,0.019,0.108c-0.006-0.006-0.013-0.013-0.019-0.02
	c-0.069-0.063-0.095-0.123-0.134-0.18c-0.081-0.108-0.107-0.214-0.107-0.214c-0.006-0.022-0.022-0.043-0.046-0.052
	c-0.038-0.014-0.082,0.005-0.096,0.043l-0.006,0.014c0,0-0.016,0.067-0.025,0.169c-0.013-0.02-0.025-0.041-0.039-0.062
	c-0.081-0.108-0.107-0.214-0.107-0.214c-0.006-0.022-0.023-0.043-0.046-0.051c-0.04-0.015-0.083,0.004-0.097,0.043l-0.005,0.014
	c0,0-0.034,0.088-0.032,0.257v0.014l-0.001-0.002c-0.026-0.077-0.051-0.144-0.06-0.188c-0.013-0.044-0.016-0.076-0.016-0.076
	c-0.003-0.026-0.02-0.05-0.045-0.062c-0.038-0.017-0.082,0-0.099,0.039l-0.004,0.009c0,0-0.011,0.025-0.023,0.081
	c-0.009,0.032-0.016,0.083-0.024,0.126c-0.028-0.045-0.059-0.094-0.082-0.136c-0.032-0.073-0.063-0.14-0.075-0.181
	c-0.016-0.042-0.022-0.074-0.022-0.074c-0.004-0.026-0.022-0.049-0.048-0.059c-0.04-0.014-0.083,0.006-0.096,0.045l-0.003,0.009
	c0,0-0.009,0.025-0.018,0.083c-0.006,0.029-0.01,0.062-0.014,0.1c-0.006-0.013-0.015-0.028-0.021-0.042
	c-0.026-0.069-0.05-0.13-0.06-0.17c-0.013-0.04-0.017-0.069-0.017-0.069c-0.003-0.025-0.019-0.048-0.043-0.06
	c-0.038-0.018-0.083-0.001-0.101,0.036l-0.003,0.009c0,0-0.011,0.023-0.024,0.074c-0.01,0.031-0.018,0.081-0.026,0.125
	c-0.018-0.037-0.04-0.075-0.055-0.107c-0.026-0.069-0.05-0.131-0.06-0.17c-0.013-0.04-0.016-0.069-0.016-0.069
	c-0.003-0.025-0.019-0.048-0.043-0.06c-0.038-0.018-0.083-0.001-0.101,0.037l-0.004,0.008c0,0-0.011,0.023-0.024,0.075
	c-0.013,0.043-0.023,0.106-0.036,0.175c-0.014-0.028-0.032-0.059-0.044-0.085c-0.025-0.069-0.049-0.131-0.059-0.17
	c-0.013-0.04-0.016-0.07-0.016-0.07c-0.003-0.025-0.019-0.048-0.043-0.06c-0.038-0.017-0.083-0.001-0.1,0.037l-0.005,0.009
	c0,0-0.01,0.022-0.023,0.075c-0.016,0.052-0.028,0.121-0.043,0.209c-0.003,0.024-0.003,0.058-0.006,0.085
	c-0.001-0.004-0.003-0.011-0.004-0.016c-0.042-0.182-0.048-0.307-0.048-0.307c-0.001-0.028-0.019-0.055-0.046-0.066
	c-0.039-0.017-0.083,0.002-0.099,0.041c0,0-0.046,0.113-0.089,0.292c-0.023-0.058-0.051-0.119-0.069-0.17
	c-0.054-0.174-0.068-0.295-0.068-0.295c-0.003-0.028-0.022-0.054-0.05-0.063c-0.039-0.014-0.083,0.006-0.097,0.046
	c0,0-0.045,0.129-0.076,0.333c0,0.003,0,0.009-0.001,0.013c-0.034-0.077-0.066-0.154-0.09-0.222
	c-0.055-0.173-0.068-0.295-0.068-0.295c-0.003-0.028-0.022-0.054-0.05-0.063c-0.04-0.014-0.083,0.006-0.097,0.046
	c0,0-0.046,0.13-0.075,0.333c-0.003,0.026-0.003,0.063-0.006,0.092c-0.032-0.073-0.064-0.147-0.086-0.212
	c-0.054-0.173-0.068-0.295-0.068-0.295c-0.003-0.028-0.022-0.054-0.05-0.063c-0.04-0.014-0.083,0.006-0.097,0.046
	c0,0-0.046,0.129-0.076,0.333c-0.01,0.09-0.018,0.201-0.02,0.316c-0.017-0.071-0.037-0.147-0.048-0.209
	c-0.036-0.224-0.033-0.375-0.033-0.375c0-0.03-0.019-0.06-0.048-0.071c-0.039-0.015-0.082,0.005-0.097,0.043
	c0,0-0.062,0.152-0.113,0.393c-0.013,0.06-0.025,0.126-0.035,0.196c-0.041-0.14-0.072-0.275-0.091-0.392
	c-0.036-0.224-0.033-0.375-0.033-0.375c0-0.03-0.019-0.06-0.048-0.071c-0.039-0.015-0.082,0.005-0.097,0.043
	c0,0-0.062,0.152-0.113,0.392c-0.02,0.09-0.036,0.197-0.049,0.31c-0.04-0.138-0.069-0.271-0.088-0.387
	c-0.036-0.224-0.033-0.376-0.033-0.376c0-0.03-0.019-0.06-0.049-0.071c-0.038-0.015-0.082,0.004-0.097,0.043
	c0,0-0.062,0.151-0.113,0.392c-0.029,0.144-0.056,0.324-0.068,0.516c-0.044-0.148-0.079-0.292-0.099-0.417
	c-0.036-0.224-0.033-0.375-0.033-0.375c0-0.03-0.019-0.06-0.049-0.071c-0.039-0.015-0.082,0.005-0.097,0.043
	c0,0-0.062,0.152-0.113,0.392c-0.036,0.176-0.069,0.403-0.076,0.646c-0.009-0.019-0.02-0.034-0.028-0.053
	c-0.122-0.262-0.193-0.551-0.23-0.774c-0.036-0.224-0.033-0.376-0.033-0.376c0-0.03-0.019-0.06-0.048-0.071
	c-0.039-0.015-0.083,0.004-0.097,0.043c0,0-0.062,0.152-0.113,0.392c-0.024,0.119-0.048,0.261-0.062,0.416
	c-0.009-0.021-0.021-0.038-0.031-0.059c-0.122-0.261-0.193-0.551-0.23-0.773c-0.036-0.224-0.033-0.375-0.033-0.375
	c0-0.03-0.019-0.06-0.048-0.071c-0.039-0.015-0.083,0.004-0.098,0.043c0,0-0.062,0.152-0.113,0.392
	c-0.05,0.24-0.093,0.573-0.072,0.913c0.009,0.17,0.02,0.344,0.058,0.502c0.011,0.051,0.02,0.1,0.03,0.149
	c-0.101-0.243-0.182-0.49-0.225-0.69c-0.058-0.251-0.069-0.424-0.069-0.424c-0.003-0.03-0.026-0.061-0.058-0.067
	c-0.041-0.009-0.081,0.016-0.09,0.056c0,0-0.047,0.176-0.075,0.449c-0.01,0.091-0.017,0.195-0.021,0.304
	c-0.057-0.164-0.102-0.322-0.131-0.458c-0.058-0.251-0.069-0.424-0.069-0.424c-0.003-0.03-0.026-0.061-0.058-0.067
	c-0.041-0.009-0.081,0.016-0.09,0.056c0,0-0.047,0.177-0.075,0.449c-0.015,0.126-0.024,0.275-0.026,0.434
	c-0.055-0.16-0.099-0.314-0.127-0.447c-0.058-0.251-0.069-0.424-0.069-0.424c-0.003-0.03-0.026-0.061-0.058-0.067
	c-0.041-0.009-0.081,0.016-0.09,0.056c0,0-0.048,0.177-0.075,0.449c-0.027,0.236-0.037,0.548-0.008,0.871
	c-0.098-0.237-0.176-0.478-0.219-0.674c-0.058-0.251-0.069-0.424-0.069-0.424c-0.003-0.031-0.026-0.061-0.058-0.068
	c-0.041-0.009-0.081,0.016-0.09,0.056c0,0-0.047,0.177-0.075,0.449c-0.024,0.205-0.035,0.467-0.02,0.745
	c-0.133-0.285-0.23-0.589-0.281-0.829c-0.058-0.251-0.069-0.424-0.069-0.424c-0.004-0.03-0.026-0.061-0.058-0.067
	c-0.041-0.009-0.081,0.016-0.09,0.056c0,0-0.047,0.176-0.075,0.449c-0.02,0.172-0.029,0.384-0.023,0.611
	c-0.018-0.034-0.034-0.068-0.053-0.103c-0.145-0.296-0.245-0.622-0.299-0.873c-0.058-0.252-0.069-0.424-0.069-0.424
	c-0.003-0.031-0.026-0.061-0.058-0.068c-0.041-0.009-0.081,0.016-0.09,0.056c0,0-0.047,0.177-0.075,0.449
	c-0.031,0.273-0.042,0.645,0.005,1.021c0.009,0.057,0.017,0.114,0.025,0.172c-0.001-0.001-0.001-0.003-0.002-0.004
	c-0.09-0.192-0.139-0.4-0.208-0.592c-0.045-0.195-0.099-0.38-0.122-0.542c-0.062-0.322-0.068-0.542-0.068-0.542
	c-0.002-0.033-0.027-0.065-0.061-0.071c-0.041-0.007-0.079,0.019-0.087,0.06c0,0-0.051,0.224-0.075,0.566
	c-0.019,0.172-0.015,0.372-0.021,0.59c0.015,0.183,0.019,0.382,0.044,0.581c-0.008-0.017-0.015-0.034-0.023-0.05
	c-0.091-0.192-0.139-0.4-0.208-0.592c-0.044-0.195-0.099-0.38-0.122-0.542c-0.061-0.322-0.068-0.542-0.068-0.542
	c-0.002-0.033-0.027-0.065-0.061-0.071c-0.04-0.007-0.079,0.019-0.086,0.06c0,0-0.052,0.224-0.076,0.566
	c-0.018,0.172-0.015,0.372-0.021,0.59c0.015,0.183,0.019,0.382,0.044,0.581c-0.008-0.017-0.015-0.034-0.022-0.05
	c-0.091-0.192-0.14-0.4-0.208-0.592c-0.045-0.195-0.098-0.38-0.123-0.542c-0.06-0.322-0.068-0.542-0.068-0.542
	c-0.002-0.033-0.026-0.065-0.06-0.071c-0.041-0.007-0.08,0.019-0.087,0.06c0,0-0.051,0.224-0.076,0.566
	c-0.019,0.172-0.015,0.372-0.021,0.59c0.016,0.183,0.019,0.382,0.044,0.581c-0.007-0.017-0.014-0.034-0.022-0.05
	c-0.091-0.192-0.139-0.4-0.208-0.592c-0.045-0.195-0.098-0.38-0.122-0.542c-0.061-0.322-0.068-0.542-0.068-0.542
	c-0.002-0.033-0.026-0.065-0.061-0.071c-0.041-0.007-0.079,0.019-0.087,0.06c0,0-0.051,0.224-0.075,0.566
	c-0.019,0.172-0.015,0.372-0.021,0.59c0.018,0.214,0.014,0.451,0.055,0.682c0.016,0.094,0.03,0.189,0.045,0.283
	c-0.066-0.173-0.115-0.352-0.173-0.519c-0.047-0.21-0.102-0.41-0.126-0.583c-0.062-0.347-0.068-0.583-0.068-0.583
	c-0.002-0.033-0.027-0.065-0.061-0.072c-0.041-0.007-0.079,0.02-0.086,0.061c0,0-0.053,0.24-0.077,0.606
	c-0.019,0.184-0.013,0.398-0.017,0.631c0.021,0.229,0.018,0.482,0.064,0.729c0.002,0.016,0.005,0.032,0.008,0.048
	c-0.028-0.066-0.056-0.133-0.087-0.2c-0.096-0.208-0.146-0.432-0.217-0.638c-0.047-0.21-0.102-0.41-0.126-0.583
	c-0.062-0.347-0.068-0.583-0.068-0.583c-0.001-0.033-0.026-0.065-0.061-0.072c-0.041-0.007-0.079,0.02-0.086,0.061
	c0,0-0.053,0.24-0.076,0.606c-0.019,0.184-0.013,0.398-0.018,0.631c0.021,0.229,0.018,0.482,0.065,0.729
	c0.02,0.109,0.037,0.219,0.055,0.329c-0.063-0.094-0.124-0.191-0.19-0.288c-0.13-0.188-0.218-0.4-0.325-0.591
	c-0.083-0.199-0.171-0.386-0.225-0.552c-0.122-0.331-0.168-0.562-0.168-0.562c-0.008-0.032-0.038-0.06-0.073-0.06
	c-0.041,0-0.075,0.033-0.075,0.075c0,0-0.01,0.245,0.03,0.61c0.014,0.185,0.057,0.394,0.092,0.625
	c0.061,0.222,0.101,0.472,0.19,0.708c0.016,0.043,0.031,0.086,0.046,0.13c-0.004-0.004-0.007-0.008-0.012-0.013
	c-0.157-0.166-0.276-0.363-0.411-0.535c-0.111-0.185-0.228-0.355-0.306-0.512c-0.17-0.308-0.25-0.53-0.25-0.53
	c-0.013-0.031-0.046-0.053-0.081-0.048c-0.041,0.006-0.069,0.044-0.062,0.085c0,0,0.027,0.244,0.122,0.598
	c0.041,0.181,0.116,0.381,0.185,0.604c0.094,0.21,0.171,0.452,0.295,0.671c0.122,0.219,0.228,0.454,0.376,0.643
	c0.144,0.191,0.256,0.396,0.399,0.529c0.272,0.288,0.454,0.479,0.454,0.479c0.029,0.029,0.063,0.059,0.1,0.082
	c0.047,0.03,0.098,0.044,0.149,0.059c0.005,0.082,0.007,0.166,0.016,0.246c0.038,0.405,0.109,0.798,0.188,1.187
	c0.087,0.387,0.186,0.769,0.304,1.142c0.118,0.373,0.246,0.742,0.393,1.102c0.143,0.362,0.297,0.717,0.468,1.063
	c0.157,0.354,0.352,0.686,0.529,1.027c0.185,0.336,0.39,0.66,0.583,0.99l0.632,0.956l0.004,0.007
	c-0.062,0.12-0.123,0.249-0.193,0.38c-0.119,0.21-0.188,0.457-0.275,0.692c-0.088,0.234-0.129,0.484-0.19,0.707
	c-0.036,0.23-0.079,0.44-0.092,0.625c-0.041,0.365-0.031,0.61-0.031,0.61c0.002,0.033,0.026,0.065,0.06,0.072
	c0.041,0.008,0.08-0.018,0.088-0.058c0,0,0.046-0.231,0.167-0.562c0.054-0.167,0.143-0.354,0.225-0.553
	c0.106-0.19,0.194-0.403,0.325-0.591c0.117-0.171,0.219-0.344,0.346-0.489c-0.028,0.08-0.055,0.159-0.084,0.237
	c-0.089,0.234-0.129,0.484-0.19,0.707c-0.036,0.23-0.079,0.44-0.092,0.625c-0.04,0.365-0.03,0.61-0.03,0.61
	c0.001,0.033,0.026,0.065,0.06,0.072c0.041,0.008,0.08-0.018,0.088-0.058c0,0,0.046-0.231,0.167-0.562
	c0.054-0.167,0.143-0.354,0.225-0.553c0.106-0.19,0.194-0.403,0.325-0.591c0.129-0.188,0.237-0.386,0.383-0.538
	c0.104-0.112,0.189-0.222,0.278-0.315c-0.01,0.027-0.019,0.055-0.029,0.083c-0.089,0.234-0.129,0.484-0.19,0.707
	c-0.036,0.23-0.079,0.44-0.092,0.625c-0.041,0.365-0.031,0.61-0.031,0.61c0.001,0.033,0.026,0.065,0.06,0.072
	c0.041,0.009,0.08-0.018,0.088-0.058c0,0,0.046-0.231,0.167-0.562c0.054-0.167,0.143-0.354,0.225-0.553
	c0.106-0.19,0.194-0.403,0.325-0.591c0.129-0.188,0.237-0.386,0.384-0.538c0.142-0.153,0.245-0.318,0.377-0.418
	c0.03-0.025,0.054-0.047,0.081-0.071c-0.079,0.224-0.121,0.458-0.178,0.668c-0.036,0.23-0.079,0.44-0.092,0.625
	c-0.041,0.365-0.031,0.609-0.031,0.609c0.002,0.034,0.026,0.066,0.06,0.073c0.041,0.008,0.08-0.018,0.088-0.058
	c0,0,0.046-0.231,0.167-0.562c0.054-0.166,0.143-0.353,0.225-0.552c0.106-0.191,0.194-0.403,0.325-0.592
	c0.129-0.188,0.237-0.385,0.384-0.537c0.023-0.025,0.042-0.051,0.064-0.076c-0.026,0.112-0.051,0.224-0.08,0.328
	c-0.036,0.231-0.079,0.44-0.092,0.625c-0.041,0.365-0.031,0.61-0.031,0.61c0.002,0.033,0.026,0.065,0.061,0.072
	c0.041,0.009,0.08-0.018,0.088-0.058c0,0,0.046-0.231,0.167-0.562c0.054-0.167,0.143-0.354,0.225-0.553
	c0.106-0.19,0.195-0.403,0.325-0.591c0.072-0.104,0.139-0.21,0.208-0.311c0.035-0.015,0.07-0.029,0.104-0.044
	c-0.002,0.006-0.004,0.013-0.007,0.019c-0.072,0.222-0.149,0.422-0.191,0.602c-0.099,0.354-0.128,0.598-0.128,0.598
	c-0.004,0.033,0.015,0.069,0.047,0.082c0.038,0.014,0.081-0.006,0.096-0.044c0,0,0.083-0.221,0.256-0.527
	c0.08-0.156,0.198-0.325,0.312-0.509c0.136-0.171,0.257-0.366,0.416-0.531c0.02-0.021,0.037-0.041,0.056-0.061
	c0.007-0.004,0.016-0.007,0.023-0.011c-0.072,0.129-0.14,0.253-0.19,0.367c-0.16,0.33-0.232,0.564-0.232,0.565
	c-0.01,0.031,0.002,0.07,0.032,0.088c0.036,0.021,0.081,0.01,0.103-0.025c0,0,0.121-0.202,0.346-0.474
	c0.106-0.139,0.252-0.285,0.396-0.445c0.164-0.144,0.318-0.314,0.504-0.448c0.074-0.054,0.144-0.108,0.215-0.163
	c0.15-0.07,0.302-0.136,0.451-0.21c0.413-0.206,0.833-0.396,1.24-0.613l1.225-0.64l1.205-0.674c0.405-0.219,0.794-0.466,1.19-0.701
	c0.392-0.24,0.792-0.467,1.175-0.723l1.157-0.75c0.385-0.25,0.756-0.523,1.134-0.783c0.374-0.267,0.757-0.517,1.121-0.802
	l1.103-0.834c0.374-0.273,0.716-0.569,1.071-0.856l1.056-0.867c0.151-0.125,0.18-0.347,0.062-0.505
	C127.897,169.205,127.667,169.171,127.503,169.292z M112.148,177.613c-0.046,0.067-0.078,0.14-0.103,0.214
	c-0.378,0.136-0.757,0.27-1.136,0.398c-0.425,0.137-0.85,0.278-1.277,0.401c-0.216,0.064-0.436,0.129-0.653,0.188l-0.247-0.373
	c-0.177-0.303-0.366-0.601-0.535-0.908c-0.16-0.311-0.339-0.614-0.48-0.933c-0.154-0.313-0.293-0.631-0.42-0.953
	c-0.131-0.321-0.244-0.647-0.347-0.974c-0.104-0.327-0.188-0.657-0.263-0.987c-0.068-0.331-0.128-0.662-0.158-0.989
	c-0.013-0.115-0.017-0.227-0.022-0.338c0.141-0.038,0.284-0.075,0.425-0.107c0.36-0.092,0.73-0.164,1.097-0.243
	c0.738-0.141,1.482-0.268,2.231-0.36c0.375-0.043,0.749-0.1,1.126-0.127c0.212-0.017,0.425-0.037,0.638-0.056
	C114.298,174.316,112.245,177.469,112.148,177.613z M123.054,172.403c-0.384,0.238-0.759,0.488-1.15,0.715l-1.169,0.682
	c-0.386,0.232-0.79,0.437-1.185,0.653c-0.398,0.211-0.79,0.434-1.196,0.629l-1.209,0.603l-1.226,0.566
	c-0.407,0.193-0.825,0.359-1.236,0.54c-0.005,0.002-0.009,0.004-0.014,0.006c-0.072,0.005-0.142,0.026-0.208,0.061
	c0.509-1.526,0.686-3.553-0.366-5.493c0.232-0.005,0.463-0.013,0.695-0.013c0.379-0.012,0.758,0.004,1.138,0.015
	c0.379,0.016,0.76,0.009,1.138,0.044l1.136,0.082c0.38,0.022,0.755,0.084,1.133,0.125c0.376,0.051,0.758,0.077,1.131,0.15
	l1.125,0.191c0.544,0.093,1.082,0.219,1.621,0.343C123.159,172.336,123.106,172.369,123.054,172.403z M101.033,205.239
	c-2.549-0.85-6-0.074-6-0.074s-1.63,0.519,0.889,0.89c2.519,0.37,1.704-0.297,3.777-0.148
	C101.773,206.055,101.477,205.388,101.033,205.239z M106.396,202.096c-0.073-0.299-0.196-0.57-0.307-0.83
	c-0.128-0.25-0.249-0.491-0.392-0.692c-0.266-0.417-0.554-0.716-0.76-0.925c-0.105-0.101-0.194-0.182-0.268-0.239
	c-0.062-0.05-0.094-0.076-0.094-0.076c-0.01-0.008-0.021-0.017-0.031-0.023c-0.278-0.194-0.66-0.126-0.855,0.151
	c-0.194,0.277-0.126,0.66,0.151,0.854l0.023,0.017c0,0,0.027,0.018,0.076,0.053c0.037,0.024,0.103,0.076,0.19,0.149
	c0.166,0.148,0.415,0.369,0.647,0.689c0.127,0.152,0.233,0.34,0.352,0.532c0.101,0.202,0.218,0.414,0.291,0.652
	c0.101,0.229,0.139,0.486,0.203,0.742c0.032,0.261,0.068,0.53,0.067,0.802c-0.023,0.271,0.003,0.548-0.062,0.815
	c-0.055,0.267-0.071,0.538-0.166,0.788c-0.081,0.25-0.142,0.5-0.231,0.727c-0.098,0.226-0.191,0.438-0.276,0.634
	c-0.163,0.398-0.375,0.696-0.489,0.922c-0.124,0.221-0.195,0.347-0.195,0.347l-0.014,0.025c-0.076,0.134-0.035,0.306,0.096,0.391
	c0.137,0.09,0.319,0.052,0.409-0.084c0,0,0.083-0.127,0.229-0.349c0.136-0.229,0.377-0.525,0.581-0.938
	c0.106-0.205,0.221-0.427,0.341-0.661c0.114-0.238,0.2-0.508,0.308-0.779c0.119-0.267,0.164-0.572,0.244-0.871
	c0.091-0.298,0.09-0.623,0.135-0.938c0.021-0.318,0.003-0.644-0.017-0.961C106.528,202.703,106.497,202.387,106.396,202.096z"/>
</svg>
